<svg xmlns="http://www.w3.org/2000/svg" width="512" height="512" viewBox="0 0 512 512" version="1.1">
	<path d="M 242.737 107.596 C 242.336 107.997, 238.743 108.676, 234.754 109.103 C 226.627 109.975, 216.518 112.149, 215.401 113.266 C 214.997 113.670, 213.418 114, 211.892 114 C 210.366 114, 208.840 114.450, 208.500 115 C 208.160 115.550, 207.002 116, 205.927 116 C 204.852 116, 203.191 116.384, 202.236 116.853 C 201.281 117.322, 198.925 118.396, 197 119.241 C 183.399 125.205, 177.436 128.501, 165.304 136.762 C 156.205 142.956, 132 166.013, 132 168.484 C 132 169.147, 131.054 170.546, 129.898 171.593 C 128.741 172.639, 127.104 174.846, 126.258 176.498 C 125.413 178.149, 124.446 179.725, 124.110 180 C 123.267 180.691, 120.195 186.275, 116.704 193.462 C 115.091 196.783, 113.337 200.338, 112.806 201.363 C 112.276 202.388, 111.679 203.963, 111.480 204.863 C 111.102 206.570, 109.265 212.057, 107.919 215.500 C 107.152 217.459, 106.900 218.725, 105.004 230.091 C 104.491 233.166, 103.605 236.908, 103.036 238.406 C 101.436 242.615, 101.763 264.646, 103.511 270.409 C 104.330 273.109, 105 277.245, 105 279.600 C 105 281.955, 105.450 284.160, 106 284.500 C 106.550 284.840, 107 286.640, 107 288.500 C 107 290.360, 107.450 292.160, 108 292.500 C 108.550 292.840, 109 294.223, 109 295.573 C 109 296.923, 109.384 298.809, 109.853 299.764 C 110.322 300.719, 111.497 303.300, 112.464 305.500 C 113.431 307.700, 114.622 310.281, 115.111 311.236 C 115.600 312.191, 116 313.654, 116 314.486 C 116 315.319, 116.351 316, 116.781 316 C 117.210 316, 118.079 317.238, 118.711 318.750 C 119.843 321.461, 123.025 327.025, 124 328 C 126.389 330.389, 127.039 333.291, 125.808 336.071 C 125.095 337.682, 124.172 339, 123.756 339 C 123.340 339, 123 339.752, 123 340.671 C 123 341.590, 122.369 343.053, 121.597 343.921 C 120.826 344.790, 118.533 348.650, 116.501 352.500 C 111.478 362.019, 107.725 368.818, 105.185 373 C 101.054 379.802, 100 383.235, 100 389.899 C 100 395.869, 100.303 396.886, 102.944 399.777 C 104.563 401.550, 106.588 403, 107.444 403 C 108.300 403, 109 403.450, 109 404 C 109 405.259, 117.344 405.307, 121.429 404.071 C 123.118 403.560, 128.155 401.985, 132.621 400.571 C 137.088 399.157, 141.674 398, 142.812 398 C 143.951 398, 145.129 397.600, 145.432 397.110 C 145.734 396.621, 147.448 395.988, 149.241 395.704 C 151.033 395.419, 154.075 394.713, 156 394.134 C 157.925 393.555, 161.975 392.334, 165 391.419 C 168.025 390.504, 171.967 389.536, 173.759 389.268 C 175.552 388.999, 177.266 388.379, 177.568 387.890 C 177.871 387.400, 179.195 387, 180.512 387 C 181.829 387, 184.064 386.472, 185.480 385.827 C 187.449 384.930, 188.330 384.930, 189.227 385.827 C 189.872 386.472, 191.210 387, 192.200 387 C 193.190 387, 194 387.450, 194 388 C 194 388.550, 194.906 389, 196.014 389 C 198.026 389, 198.742 389.278, 204.654 392.357 C 206.389 393.261, 208.725 394, 209.845 394 C 210.965 394, 212.129 394.400, 212.432 394.890 C 212.734 395.379, 214.448 396.035, 216.241 396.348 C 218.033 396.661, 221.975 397.410, 225 398.012 C 245.323 402.061, 262.333 402.803, 279.500 400.387 C 285.550 399.536, 292.300 398.605, 294.500 398.317 C 296.700 398.030, 298.928 397.391, 299.450 396.898 C 299.973 396.404, 301.858 396, 303.641 396 C 305.424 396, 307.160 395.550, 307.500 395 C 307.840 394.450, 308.955 394, 309.978 394 C 311.001 394, 313.112 393.367, 314.669 392.593 C 316.226 391.818, 318.625 390.732, 320 390.179 C 327.131 387.311, 335 383.414, 335 382.752 C 335 382.338, 335.900 382, 337 382 C 338.100 382, 339 381.550, 339 381 C 339 380.450, 339.476 380, 340.057 380 C 342.981 380, 360.859 366.190, 370.500 356.485 C 379.707 347.217, 392.955 329.245, 396.658 321 C 398.169 317.635, 403.119 306.924, 404.162 304.764 C 404.623 303.809, 405 302.148, 405 301.073 C 405 299.998, 405.450 298.840, 406 298.500 C 406.550 298.160, 407 296.754, 407 295.375 C 407 293.997, 407.537 291.886, 408.193 290.684 C 413.375 281.194, 413.518 226.869, 408.380 219.527 C 407.621 218.443, 407 216.332, 407 214.837 C 407 213.341, 406.550 211.840, 406 211.500 C 405.450 211.160, 405 210.002, 405 208.927 C 405 207.852, 404.602 206.191, 404.115 205.236 C 403.628 204.281, 401.058 199, 398.403 193.500 C 395.749 188, 392.547 182.108, 391.288 180.406 C 390.030 178.704, 389 176.791, 389 176.156 C 389 175.520, 388.580 175, 388.067 175 C 387.554 175, 386.866 174.152, 386.537 173.116 C 386.208 172.081, 384.715 169.933, 383.220 168.344 C 381.724 166.756, 379.314 163.891, 377.864 161.978 C 374.097 157.007, 368.230 151.120, 362.476 146.535 C 359.739 144.355, 356.825 141.841, 356 140.950 C 355.175 140.058, 350.225 136.632, 345 133.336 C 336.736 128.123, 333.232 126.138, 324.764 121.874 C 323.809 121.393, 322.401 121, 321.636 121 C 320.871 121, 319.685 120.325, 319 119.500 C 318.315 118.675, 316.712 118, 315.437 118 C 314.161 118, 312.840 117.550, 312.500 117 C 312.160 116.450, 311.002 116, 309.927 116 C 308.852 116, 307.191 115.610, 306.236 115.134 C 302.919 113.480, 297.479 111.892, 293.703 111.477 C 291.614 111.247, 289.364 110.713, 288.703 110.290 C 285.790 108.427, 244.336 105.997, 242.737 107.596 M 250.500 233.733 C 242.904 237.583, 238.962 243.679, 239.073 251.404 C 239.162 257.609, 241.244 261.422, 246.904 265.750 C 250.557 268.543, 251.961 269, 256.878 269 C 263.570 269, 269.107 266.018, 272.759 260.447 C 275.333 256.520, 275.890 246.566, 273.750 242.736 C 268.668 233.644, 258.468 229.694, 250.500 233.733 M 189.842 243.021 C 181.929 247.201, 178.178 255.006, 179.652 264.224 C 180.177 267.509, 181.418 269.511, 185.230 273.224 C 190.104 277.971, 190.173 278, 196.817 277.967 C 202.440 277.939, 204.114 277.503, 207.372 275.217 C 212.255 271.790, 216 265.186, 216 260 C 216 251.107, 206.164 240.953, 197.637 241.044 C 195.362 241.069, 191.854 241.958, 189.842 243.021 M 310.500 242.740 C 296.958 249.635, 295.172 266.829, 307.124 275.250 C 310.388 277.550, 312.063 278, 317.363 278 C 322.774 278, 324.287 277.575, 327.717 275.090 C 332.222 271.827, 336 265.013, 336 260.152 C 336 247.400, 321.198 237.293, 310.500 242.740" stroke="none" fill="black" fill-rule="evenodd"/>
</svg>